<svg width="157" height="56" viewBox="0 0 157 56" fill="none" xmlns="http://www.w3.org/2000/svg">
<g filter="url(#filter0_b_15_2657)">
<rect x="0.5" y="0.5" width="156" height="55" rx="27.5" stroke="white"/>
<path d="M41.9386 25.0352C41.8822 24.5079 41.6448 24.0974 41.2262 23.8036C40.8117 23.5098 40.2724 23.3629 39.6083 23.3629C39.1415 23.3629 38.741 23.4334 38.407 23.5742C38.0729 23.7151 37.8174 23.9062 37.6403 24.1477C37.4632 24.3892 37.3726 24.6649 37.3686 24.9748C37.3686 25.2324 37.427 25.4557 37.5437 25.6449C37.6644 25.834 37.8274 25.995 38.0327 26.1278C38.2379 26.2566 38.4653 26.3653 38.7148 26.4538C38.9644 26.5424 39.2159 26.6168 39.4695 26.6772L40.6286 26.967C41.0954 27.0756 41.5442 27.2225 41.9748 27.4077C42.4094 27.5928 42.7978 27.8262 43.1399 28.108C43.486 28.3897 43.7597 28.7298 43.9609 29.1282C44.1622 29.5266 44.2628 29.9935 44.2628 30.5288C44.2628 31.2532 44.0777 31.8911 43.7074 32.4425C43.3371 32.9898 42.8018 33.4184 42.1016 33.7283C41.4053 34.0342 40.5621 34.1871 39.5721 34.1871C38.6102 34.1871 37.7751 34.0382 37.0668 33.7404C36.3625 33.4426 35.8111 33.0079 35.4126 32.4364C35.0182 31.8649 34.8049 31.1687 34.7727 30.3477H36.9762C37.0084 30.7783 37.1412 31.1365 37.3746 31.4222C37.6081 31.708 37.9119 31.9213 38.2862 32.0621C38.6645 32.203 39.0871 32.2734 39.554 32.2734C40.041 32.2734 40.4676 32.201 40.8338 32.0561C41.2041 31.9072 41.4938 31.7019 41.7031 31.4403C41.9124 31.1747 42.0191 30.8648 42.0231 30.5107C42.0191 30.1887 41.9245 29.9231 41.7393 29.7138C41.5542 29.5005 41.2946 29.3234 40.9606 29.1825C40.6306 29.0376 40.2442 28.9089 39.8015 28.7962L38.3949 28.4339C37.3767 28.1723 36.5717 27.7759 35.9801 27.2447C35.3925 26.7094 35.0987 25.9991 35.0987 25.1136C35.0987 24.3852 35.2959 23.7473 35.6903 23.1999C36.0888 22.6526 36.6301 22.228 37.3143 21.9261C37.9985 21.6203 38.7732 21.4673 39.6385 21.4673C40.5159 21.4673 41.2846 21.6203 41.9446 21.9261C42.6087 22.228 43.1299 22.6486 43.5082 23.1879C43.8865 23.7231 44.0817 24.3389 44.0938 25.0352H41.9386ZM48.8312 34.1871C48.2436 34.1871 47.7144 34.0825 47.2435 33.8732C46.7767 33.6599 46.4064 33.346 46.1327 32.9315C45.8631 32.5169 45.7282 32.0058 45.7282 31.3981C45.7282 30.8749 45.8248 30.4422 46.018 30.1001C46.2112 29.758 46.4748 29.4844 46.8089 29.2791C47.1429 29.0739 47.5192 28.9189 47.9378 28.8143C48.3604 28.7056 48.797 28.6271 49.2478 28.5788C49.7911 28.5225 50.2318 28.4722 50.5699 28.4279C50.9079 28.3796 51.1534 28.3072 51.3064 28.2106C51.4633 28.11 51.5418 27.955 51.5418 27.7457V27.7095C51.5418 27.2547 51.407 26.9026 51.1373 26.6531C50.8677 26.4035 50.4793 26.2788 49.9722 26.2788C49.4369 26.2788 49.0123 26.3955 48.6984 26.6289C48.3885 26.8623 48.1792 27.138 48.0706 27.456L46.0301 27.1662C46.1911 26.6027 46.4567 26.1319 46.827 25.7536C47.1972 25.3712 47.65 25.0855 48.1853 24.8963C48.7206 24.7031 49.3122 24.6065 49.9601 24.6065C50.4069 24.6065 50.8516 24.6589 51.2943 24.7635C51.737 24.8681 52.1415 25.0412 52.5077 25.2827C52.874 25.5201 53.1678 25.8441 53.3891 26.2546C53.6145 26.6651 53.7272 27.1783 53.7272 27.794V34H51.6263V32.7262H51.5539C51.4211 32.9838 51.2339 33.2253 50.9925 33.4506C50.755 33.672 50.4552 33.8511 50.093 33.9879C49.7348 34.1207 49.3142 34.1871 48.8312 34.1871ZM49.3987 32.5813C49.8374 32.5813 50.2177 32.4948 50.5397 32.3217C50.8617 32.1446 51.1092 31.9112 51.2822 31.6214C51.4593 31.3317 51.5479 31.0157 51.5479 30.6737V29.581C51.4794 29.6373 51.3627 29.6896 51.1977 29.7379C51.0367 29.7862 50.8556 29.8285 50.6544 29.8647C50.4532 29.9009 50.2539 29.9331 50.0567 29.9613C49.8595 29.9895 49.6885 30.0136 49.5436 30.0337C49.2176 30.078 48.9258 30.1504 48.6682 30.2511C48.4107 30.3517 48.2074 30.4925 48.0585 30.6737C47.9096 30.8507 47.8351 31.0801 47.8351 31.3619C47.8351 31.7643 47.982 32.0682 48.2758 32.2734C48.5696 32.4787 48.9439 32.5813 49.3987 32.5813ZM55.9246 34V24.7273H58.11V34H55.9246ZM57.0233 23.4112C56.6772 23.4112 56.3794 23.2965 56.1299 23.0671C55.8804 22.8337 55.7556 22.554 55.7556 22.228C55.7556 21.898 55.8804 21.6183 56.1299 21.3888C56.3794 21.1554 56.6772 21.0387 57.0233 21.0387C57.3735 21.0387 57.6713 21.1554 57.9168 21.3888C58.1663 21.6183 58.2911 21.898 58.2911 22.228C58.2911 22.554 58.1663 22.8337 57.9168 23.0671C57.6713 23.2965 57.3735 23.4112 57.0233 23.4112ZM60.4538 34V21.6364H62.6392V26.2607H62.7298C62.8424 26.0353 63.0014 25.7958 63.2067 25.5423C63.4119 25.2847 63.6896 25.0653 64.0398 24.8842C64.3899 24.6991 64.8366 24.6065 65.38 24.6065C66.0964 24.6065 66.7423 24.7897 67.3178 25.1559C67.8974 25.5181 68.3562 26.0554 68.6942 26.7678C69.0363 27.4761 69.2074 28.3454 69.2074 29.3757C69.2074 30.3939 69.0404 31.2592 68.7063 31.9716C68.3723 32.6839 67.9175 33.2273 67.342 33.6016C66.7665 33.9759 66.1145 34.163 65.386 34.163C64.8548 34.163 64.4141 34.0745 64.0639 33.8974C63.7138 33.7203 63.4321 33.507 63.2188 33.2575C63.0095 33.0039 62.8465 32.7644 62.7298 32.5391H62.603V34H60.4538ZM62.5969 29.3636C62.5969 29.9633 62.6815 30.4885 62.8505 30.9393C63.0236 31.39 63.2711 31.7422 63.593 31.9957C63.919 32.2453 64.3134 32.37 64.7763 32.37C65.2592 32.37 65.6637 32.2412 65.9897 31.9837C66.3157 31.7221 66.5612 31.3659 66.7262 30.9151C66.8952 30.4603 66.9798 29.9432 66.9798 29.3636C66.9798 28.7881 66.8973 28.277 66.7322 27.8303C66.5672 27.3835 66.3217 27.0334 65.9957 26.7798C65.6697 26.5263 65.2633 26.3995 64.7763 26.3995C64.3094 26.3995 63.913 26.5223 63.587 26.7678C63.261 27.0133 63.0135 27.3574 62.8445 27.8001C62.6795 28.2428 62.5969 28.764 62.5969 29.3636ZM73.7336 34.1871C73.146 34.1871 72.6167 34.0825 72.1459 33.8732C71.679 33.6599 71.3087 33.346 71.0351 32.9315C70.7654 32.5169 70.6306 32.0058 70.6306 31.3981C70.6306 30.8749 70.7272 30.4422 70.9204 30.1001C71.1135 29.758 71.3772 29.4844 71.7112 29.2791C72.0452 29.0739 72.4215 28.9189 72.8401 28.8143C73.2627 28.7056 73.6994 28.6271 74.1501 28.5788C74.6934 28.5225 75.1341 28.4722 75.4722 28.4279C75.8103 28.3796 76.0558 28.3072 76.2087 28.2106C76.3657 28.11 76.4442 27.955 76.4442 27.7457V27.7095C76.4442 27.2547 76.3093 26.9026 76.0397 26.6531C75.77 26.4035 75.3817 26.2788 74.8746 26.2788C74.3393 26.2788 73.9147 26.3955 73.6008 26.6289C73.2909 26.8623 73.0816 27.138 72.9729 27.456L70.9324 27.1662C71.0934 26.6027 71.359 26.1319 71.7293 25.7536C72.0996 25.3712 72.5523 25.0855 73.0876 24.8963C73.6229 24.7031 74.2145 24.6065 74.8625 24.6065C75.3092 24.6065 75.7539 24.6589 76.1966 24.7635C76.6394 24.8681 77.0438 25.0412 77.4101 25.2827C77.7763 25.5201 78.0701 25.8441 78.2915 26.2546C78.5168 26.6651 78.6295 27.1783 78.6295 27.794V34H76.5287V32.7262H76.4562C76.3234 32.9838 76.1363 33.2253 75.8948 33.4506C75.6573 33.672 75.3575 33.8511 74.9953 33.9879C74.6371 34.1207 74.2165 34.1871 73.7336 34.1871ZM74.301 32.5813C74.7397 32.5813 75.1201 32.4948 75.442 32.3217C75.764 32.1446 76.0115 31.9112 76.1846 31.6214C76.3617 31.3317 76.4502 31.0157 76.4502 30.6737V29.581C76.3818 29.6373 76.2651 29.6896 76.1001 29.7379C75.9391 29.7862 75.758 29.8285 75.5567 29.8647C75.3555 29.9009 75.1563 29.9331 74.9591 29.9613C74.7619 29.9895 74.5908 30.0136 74.4459 30.0337C74.1199 30.078 73.8282 30.1504 73.5706 30.2511C73.313 30.3517 73.1098 30.4925 72.9608 30.6737C72.8119 30.8507 72.7375 31.0801 72.7375 31.3619C72.7375 31.7643 72.8844 32.0682 73.1782 32.2734C73.472 32.4787 73.8463 32.5813 74.301 32.5813ZM85.0438 34V24.7273H87.1325V26.3029H87.2412C87.4344 25.7717 87.7544 25.3571 88.2011 25.0593C88.6478 24.7575 89.1811 24.6065 89.8009 24.6065C90.4287 24.6065 90.9579 24.7595 91.3886 25.0653C91.8232 25.3672 92.1291 25.7797 92.3062 26.3029H92.4028C92.608 25.7878 92.9542 25.3772 93.4411 25.0714C93.9321 24.7615 94.5137 24.6065 95.1858 24.6065C96.039 24.6065 96.7353 24.8762 97.2746 25.4155C97.8139 25.9548 98.0835 26.7416 98.0835 27.7759V34H95.8921V28.114C95.8921 27.5385 95.7392 27.1179 95.4333 26.8523C95.1275 26.5826 94.7532 26.4478 94.3105 26.4478C93.7832 26.4478 93.3707 26.6128 93.0729 26.9428C92.7791 27.2688 92.6322 27.6934 92.6322 28.2166V34H90.4891V28.0234C90.4891 27.5445 90.3442 27.1622 90.0544 26.8764C89.7687 26.5907 89.3944 26.4478 88.9316 26.4478C88.6176 26.4478 88.3319 26.5283 88.0743 26.6893C87.8167 26.8462 87.6115 27.0696 87.4585 27.3594C87.3056 27.6451 87.2291 27.9792 87.2291 28.3615V34H85.0438ZM102.969 34.1871C102.381 34.1871 101.852 34.0825 101.381 33.8732C100.914 33.6599 100.544 33.346 100.27 32.9315C100.001 32.5169 99.8659 32.0058 99.8659 31.3981C99.8659 30.8749 99.9625 30.4422 100.156 30.1001C100.349 29.758 100.613 29.4844 100.947 29.2791C101.281 29.0739 101.657 28.9189 102.075 28.8143C102.498 28.7056 102.935 28.6271 103.385 28.5788C103.929 28.5225 104.369 28.4722 104.708 28.4279C105.046 28.3796 105.291 28.3072 105.444 28.2106C105.601 28.11 105.68 27.955 105.68 27.7457V27.7095C105.68 27.2547 105.545 26.9026 105.275 26.6531C105.005 26.4035 104.617 26.2788 104.11 26.2788C103.575 26.2788 103.15 26.3955 102.836 26.6289C102.526 26.8623 102.317 27.138 102.208 27.456L100.168 27.1662C100.329 26.6027 100.594 26.1319 100.965 25.7536C101.335 25.3712 101.788 25.0855 102.323 24.8963C102.858 24.7031 103.45 24.6065 104.098 24.6065C104.545 24.6065 104.989 24.6589 105.432 24.7635C105.875 24.8681 106.279 25.0412 106.645 25.2827C107.012 25.5201 107.305 25.8441 107.527 26.2546C107.752 26.6651 107.865 27.1783 107.865 27.794V34H105.764V32.7262H105.692C105.559 32.9838 105.372 33.2253 105.13 33.4506C104.893 33.672 104.593 33.8511 104.231 33.9879C103.872 34.1207 103.452 34.1871 102.969 34.1871ZM103.536 32.5813C103.975 32.5813 104.355 32.4948 104.677 32.3217C104.999 32.1446 105.247 31.9112 105.42 31.6214C105.597 31.3317 105.686 31.0157 105.686 30.6737V29.581C105.617 29.6373 105.5 29.6896 105.335 29.7379C105.174 29.7862 104.993 29.8285 104.792 29.8647C104.591 29.9009 104.392 29.9331 104.194 29.9613C103.997 29.9895 103.826 30.0136 103.681 30.0337C103.355 30.078 103.064 30.1504 102.806 30.2511C102.548 30.3517 102.345 30.4925 102.196 30.6737C102.047 30.8507 101.973 31.0801 101.973 31.3619C101.973 31.7643 102.12 32.0682 102.414 32.2734C102.707 32.4787 103.082 32.5813 103.536 32.5813ZM110.062 34V24.7273H112.248V34H110.062ZM111.161 23.4112C110.815 23.4112 110.517 23.2965 110.268 23.0671C110.018 22.8337 109.893 22.554 109.893 22.228C109.893 21.898 110.018 21.6183 110.268 21.3888C110.517 21.1554 110.815 21.0387 111.161 21.0387C111.511 21.0387 111.809 21.1554 112.055 21.3888C112.304 21.6183 112.429 21.898 112.429 22.228C112.429 22.554 112.304 22.8337 112.055 23.0671C111.809 23.2965 111.511 23.4112 111.161 23.4112ZM121.824 27.1783L119.832 27.3956C119.775 27.1944 119.677 27.0052 119.536 26.8281C119.399 26.651 119.214 26.5082 118.98 26.3995C118.747 26.2908 118.461 26.2365 118.123 26.2365C117.668 26.2365 117.286 26.3351 116.976 26.5323C116.67 26.7295 116.519 26.9851 116.523 27.299C116.519 27.5687 116.618 27.788 116.819 27.957C117.024 28.1261 117.362 28.2649 117.833 28.3736L119.415 28.7116C120.292 28.9008 120.944 29.2006 121.371 29.6112C121.802 30.0217 122.019 30.5589 122.023 31.223C122.019 31.8066 121.848 32.3217 121.51 32.7685C121.176 33.2112 120.711 33.5573 120.115 33.8068C119.52 34.0563 118.835 34.1811 118.063 34.1811C116.928 34.1811 116.014 33.9437 115.322 33.4688C114.63 32.9898 114.217 32.3237 114.084 31.4705L116.215 31.2653C116.312 31.6838 116.517 31.9998 116.831 32.2131C117.145 32.4264 117.554 32.533 118.057 32.533C118.576 32.533 118.992 32.4264 119.306 32.2131C119.624 31.9998 119.783 31.7362 119.783 31.4222C119.783 31.1566 119.681 30.9373 119.475 30.7642C119.274 30.5911 118.96 30.4583 118.534 30.3658L116.952 30.0337C116.063 29.8486 115.405 29.5367 114.978 29.098C114.551 28.6553 114.34 28.0959 114.344 27.4197C114.34 26.8482 114.495 26.3532 114.809 25.9347C115.127 25.5121 115.568 25.1861 116.131 24.9567C116.698 24.7232 117.352 24.6065 118.093 24.6065C119.18 24.6065 120.035 24.8379 120.659 25.3008C121.286 25.7636 121.675 26.3894 121.824 27.1783Z" fill="white"/>
</g>
<defs>
<filter id="filter0_b_15_2657" x="-1" y="-1" width="159" height="58" filterUnits="userSpaceOnUse" color-interpolation-filters="sRGB">
<feFlood flood-opacity="0" result="BackgroundImageFix"/>
<feGaussianBlur in="BackgroundImageFix" stdDeviation="0.5"/>
<feComposite in2="SourceAlpha" operator="in" result="effect1_backgroundBlur_15_2657"/>
<feBlend mode="normal" in="SourceGraphic" in2="effect1_backgroundBlur_15_2657" result="shape"/>
</filter>
</defs>
</svg>
