<svg width="243" height="56" viewBox="0 0 243 56" fill="none" xmlns="http://www.w3.org/2000/svg">
<g filter="url(#filter0_b_15_2652)">
<rect width="243" height="56" rx="28" fill="url(#paint0_linear_15_2652)"/>
<rect x="0.5" y="0.5" width="242" height="55" rx="27.5" stroke="white"/>
<path d="M35.2195 34V21.6364H43.2607V23.5138H37.4592V26.8704H42.8441V28.7479H37.4592V32.1225H43.3089V34H35.2195ZM47.6344 28.5668V34H45.449V24.7273H47.5378V26.3029H47.6465C47.8598 25.7837 48.1999 25.3712 48.6667 25.0653C49.1376 24.7595 49.7192 24.6065 50.4114 24.6065C51.0513 24.6065 51.6087 24.7434 52.0836 25.017C52.5626 25.2907 52.9328 25.6871 53.1944 26.2063C53.46 26.7255 53.5908 27.3554 53.5868 28.0959V34H51.4015V28.4339C51.4015 27.8142 51.2405 27.3292 50.9185 26.979C50.6006 26.6289 50.1599 26.4538 49.5964 26.4538C49.2141 26.4538 48.874 26.5384 48.5762 26.7074C48.2824 26.8724 48.051 27.1119 47.8819 27.4258C47.7169 27.7397 47.6344 28.12 47.6344 28.5668ZM60.4387 24.7273V26.4176H55.1081V24.7273H60.4387ZM56.4242 22.5057H58.6096V31.2109C58.6096 31.5047 58.6538 31.7301 58.7424 31.8871C58.8349 32.04 58.9557 32.1446 59.1046 32.201C59.2535 32.2573 59.4185 32.2855 59.5996 32.2855C59.7364 32.2855 59.8612 32.2754 59.9739 32.2553C60.0906 32.2352 60.1792 32.2171 60.2395 32.201L60.6078 33.9094C60.4911 33.9497 60.324 33.994 60.1067 34.0423C59.8934 34.0906 59.6318 34.1187 59.3219 34.1268C58.7746 34.1429 58.2815 34.0604 57.8429 33.8793C57.4042 33.6941 57.056 33.4084 56.7985 33.022C56.5449 32.6357 56.4202 32.1527 56.4242 31.5732V22.5057ZM62.2664 34V24.7273H64.3854V26.2727H64.482C64.651 25.7375 64.9408 25.3249 65.3513 25.0352C65.7658 24.7414 66.2387 24.5945 66.77 24.5945C66.8907 24.5945 67.0255 24.6005 67.1744 24.6126C67.3274 24.6206 67.4542 24.6347 67.5548 24.6548V26.6651C67.4622 26.6329 67.3153 26.6048 67.1141 26.5806C66.9169 26.5524 66.7257 26.5384 66.5406 26.5384C66.1421 26.5384 65.7839 26.6249 65.466 26.7979C65.1521 26.967 64.9046 27.2024 64.7235 27.5043C64.5423 27.8061 64.4518 28.1542 64.4518 28.5487V34H62.2664ZM72.7299 34.1811C71.8002 34.1811 70.9973 33.9879 70.3212 33.6016C69.6491 33.2112 69.1319 32.6598 68.7697 31.9474C68.4075 31.2311 68.2264 30.3879 68.2264 29.418C68.2264 28.4641 68.4075 27.627 68.7697 26.9066C69.1359 26.1822 69.6471 25.6187 70.3031 25.2163C70.9591 24.8098 71.7298 24.6065 72.6152 24.6065C73.1867 24.6065 73.726 24.6991 74.2331 24.8842C74.7443 25.0653 75.195 25.3471 75.5854 25.7294C75.9798 26.1117 76.2897 26.5987 76.5151 27.1903C76.7405 27.7779 76.8532 28.4782 76.8532 29.2912V29.9613H69.2527V28.4883H74.7583C74.7543 28.0697 74.6638 27.6974 74.4867 27.3714C74.3096 27.0414 74.0621 26.7818 73.7441 26.5927C73.4302 26.4035 73.064 26.3089 72.6454 26.3089C72.1987 26.3089 71.8063 26.4176 71.4682 26.6349C71.1301 26.8482 70.8665 27.13 70.6774 27.4801C70.4922 27.8262 70.3977 28.2066 70.3936 28.6211V29.907C70.3936 30.4463 70.4922 30.9091 70.6895 31.2955C70.8867 31.6778 71.1623 31.9716 71.5165 32.1768C71.8707 32.3781 72.2852 32.4787 72.7601 32.4787C73.0781 32.4787 73.3658 32.4344 73.6234 32.3459C73.881 32.2533 74.1043 32.1185 74.2935 31.9414C74.4827 31.7643 74.6255 31.545 74.7221 31.2834L76.7626 31.5128C76.6338 32.0521 76.3883 32.523 76.0261 32.9254C75.6679 33.3239 75.2091 33.6338 74.6497 33.8551C74.0903 34.0724 73.4503 34.1811 72.7299 34.1811ZM87.0239 34.1811C86.0942 34.1811 85.2913 33.9879 84.6151 33.6016C83.943 33.2112 83.4259 32.6598 83.0637 31.9474C82.7014 31.2311 82.5203 30.3879 82.5203 29.418C82.5203 28.4641 82.7014 27.627 83.0637 26.9066C83.4299 26.1822 83.941 25.6187 84.597 25.2163C85.253 24.8098 86.0238 24.6065 86.9092 24.6065C87.4807 24.6065 88.02 24.6991 88.5271 24.8842C89.0382 25.0653 89.489 25.3471 89.8794 25.7294C90.2738 26.1117 90.5837 26.5987 90.809 27.1903C91.0344 27.7779 91.1471 28.4782 91.1471 29.2912V29.9613H83.5466V28.4883H89.0523C89.0483 28.0697 88.9577 27.6974 88.7806 27.3714C88.6035 27.0414 88.356 26.7818 88.0381 26.5927C87.7242 26.4035 87.3579 26.3089 86.9394 26.3089C86.4926 26.3089 86.1002 26.4176 85.7622 26.6349C85.4241 26.8482 85.1605 27.13 84.9713 27.4801C84.7862 27.8262 84.6916 28.2066 84.6876 28.6211V29.907C84.6876 30.4463 84.7862 30.9091 84.9834 31.2955C85.1806 31.6778 85.4563 31.9716 85.8105 32.1768C86.1646 32.3781 86.5792 32.4787 87.0541 32.4787C87.372 32.4787 87.6598 32.4344 87.9173 32.3459C88.1749 32.2533 88.3983 32.1185 88.5874 31.9414C88.7766 31.7643 88.9195 31.545 89.0161 31.2834L91.0566 31.5128C90.9278 32.0521 90.6823 32.523 90.32 32.9254C89.9619 33.3239 89.503 33.6338 88.9436 33.8551C88.3842 34.0724 87.7443 34.1811 87.0239 34.1811ZM92.9959 34V24.7273H95.0847V26.3029H95.1934C95.3865 25.7717 95.7065 25.3571 96.1532 25.0593C96.6 24.7575 97.1332 24.6065 97.753 24.6065C98.3809 24.6065 98.9101 24.7595 99.3407 25.0653C99.7754 25.3672 100.081 25.7797 100.258 26.3029H100.355C100.56 25.7878 100.906 25.3772 101.393 25.0714C101.884 24.7615 102.466 24.6065 103.138 24.6065C103.991 24.6065 104.687 24.8762 105.227 25.4155C105.766 25.9548 106.036 26.7416 106.036 27.7759V34H103.844V28.114C103.844 27.5385 103.691 27.1179 103.385 26.8523C103.08 26.5826 102.705 26.4478 102.263 26.4478C101.735 26.4478 101.323 26.6128 101.025 26.9428C100.731 27.2688 100.584 27.6934 100.584 28.2166V34H98.4412V28.0234C98.4412 27.5445 98.2963 27.1622 98.0066 26.8764C97.7208 26.5907 97.3465 26.4478 96.8837 26.4478C96.5698 26.4478 96.284 26.5283 96.0265 26.6893C95.7689 26.8462 95.5636 27.0696 95.4107 27.3594C95.2578 27.6451 95.1813 27.9792 95.1813 28.3615V34H92.9959ZM116.514 34.1811C115.589 34.1811 114.794 33.9779 114.13 33.5714C113.47 33.1649 112.961 32.6035 112.602 31.8871C112.248 31.1667 112.071 30.3376 112.071 29.3999C112.071 28.4581 112.252 27.627 112.614 26.9066C112.977 26.1822 113.488 25.6187 114.148 25.2163C114.812 24.8098 115.597 24.6065 116.502 24.6065C117.255 24.6065 117.921 24.7454 118.5 25.0231C119.084 25.2968 119.549 25.6851 119.895 26.1882C120.241 26.6873 120.438 27.2708 120.487 27.9389H118.398C118.313 27.4922 118.112 27.1199 117.794 26.8221C117.48 26.5202 117.06 26.3693 116.532 26.3693C116.086 26.3693 115.693 26.4901 115.355 26.7315C115.017 26.969 114.754 27.3111 114.564 27.7578C114.379 28.2045 114.287 28.7398 114.287 29.3636C114.287 29.9955 114.379 30.5388 114.564 30.9936C114.749 31.4444 115.009 31.7925 115.343 32.038C115.681 32.2795 116.078 32.4002 116.532 32.4002C116.854 32.4002 117.142 32.3398 117.396 32.2191C117.653 32.0943 117.869 31.9152 118.042 31.6818C118.215 31.4484 118.333 31.1647 118.398 30.8306H120.487C120.434 31.4866 120.241 32.0682 119.907 32.5753C119.573 33.0784 119.118 33.4728 118.543 33.7585C117.967 34.0402 117.291 34.1811 116.514 34.1811ZM126.326 34.1811C125.42 34.1811 124.635 33.9819 123.971 33.5835C123.307 33.185 122.792 32.6276 122.426 31.9112C122.064 31.1948 121.883 30.3577 121.883 29.3999C121.883 28.442 122.064 27.6029 122.426 26.8825C122.792 26.162 123.307 25.6026 123.971 25.2042C124.635 24.8058 125.42 24.6065 126.326 24.6065C127.231 24.6065 128.016 24.8058 128.68 25.2042C129.344 25.6026 129.857 26.162 130.22 26.8825C130.586 27.6029 130.769 28.442 130.769 29.3999C130.769 30.3577 130.586 31.1948 130.22 31.9112C129.857 32.6276 129.344 33.185 128.68 33.5835C128.016 33.9819 127.231 34.1811 126.326 34.1811ZM126.338 32.4304C126.829 32.4304 127.239 32.2956 127.569 32.0259C127.899 31.7522 128.145 31.386 128.306 30.9272C128.471 30.4684 128.553 29.9573 128.553 29.3938C128.553 28.8263 128.471 28.3132 128.306 27.8544C128.145 27.3916 127.899 27.0233 127.569 26.7496C127.239 26.476 126.829 26.3391 126.338 26.3391C125.835 26.3391 125.416 26.476 125.082 26.7496C124.752 27.0233 124.505 27.3916 124.34 27.8544C124.179 28.3132 124.098 28.8263 124.098 29.3938C124.098 29.9573 124.179 30.4684 124.34 30.9272C124.505 31.386 124.752 31.7522 125.082 32.0259C125.416 32.2956 125.835 32.4304 126.338 32.4304ZM134.809 28.5668V34H132.624V24.7273H134.713V26.3029H134.821C135.035 25.7837 135.375 25.3712 135.842 25.0653C136.312 24.7595 136.894 24.6065 137.586 24.6065C138.226 24.6065 138.784 24.7434 139.258 25.017C139.737 25.2907 140.108 25.6871 140.369 26.2063C140.635 26.7255 140.766 27.3554 140.762 28.0959V34H138.576V28.4339C138.576 27.8142 138.415 27.3292 138.093 26.979C137.775 26.6289 137.335 26.4538 136.771 26.4538C136.389 26.4538 136.049 26.5384 135.751 26.7074C135.457 26.8724 135.226 27.1119 135.057 27.4258C134.892 27.7397 134.809 28.12 134.809 28.5668ZM147.614 24.7273V26.4176H142.283V24.7273H147.614ZM143.599 22.5057H145.784V31.2109C145.784 31.5047 145.829 31.7301 145.917 31.8871C146.01 32.04 146.13 32.1446 146.279 32.201C146.428 32.2573 146.593 32.2855 146.774 32.2855C146.911 32.2855 147.036 32.2754 147.149 32.2553C147.265 32.2352 147.354 32.2171 147.414 32.201L147.783 33.9094C147.666 33.9497 147.499 33.994 147.282 34.0423C147.068 34.0906 146.807 34.1187 146.497 34.1268C145.949 34.1429 145.456 34.0604 145.018 33.8793C144.579 33.6941 144.231 33.4084 143.973 33.022C143.72 32.6357 143.595 32.1527 143.599 31.5732V22.5057ZM152.11 34.1871C151.522 34.1871 150.993 34.0825 150.522 33.8732C150.055 33.6599 149.685 33.346 149.411 32.9315C149.141 32.5169 149.007 32.0058 149.007 31.3981C149.007 30.8749 149.103 30.4422 149.296 30.1001C149.49 29.758 149.753 29.4844 150.087 29.2791C150.421 29.0739 150.798 28.9189 151.216 28.8143C151.639 28.7056 152.075 28.6271 152.526 28.5788C153.069 28.5225 153.51 28.4722 153.848 28.4279C154.186 28.3796 154.432 28.3072 154.585 28.2106C154.742 28.11 154.82 27.955 154.82 27.7457V27.7095C154.82 27.2547 154.685 26.9026 154.416 26.6531C154.146 26.4035 153.758 26.2788 153.251 26.2788C152.715 26.2788 152.291 26.3955 151.977 26.6289C151.667 26.8623 151.458 27.138 151.349 27.456L149.308 27.1662C149.469 26.6027 149.735 26.1319 150.105 25.7536C150.476 25.3712 150.928 25.0855 151.464 24.8963C151.999 24.7031 152.59 24.6065 153.238 24.6065C153.685 24.6065 154.13 24.6589 154.573 24.7635C155.015 24.8681 155.42 25.0412 155.786 25.2827C156.152 25.5201 156.446 25.8441 156.667 26.2546C156.893 26.6651 157.006 27.1783 157.006 27.794V34H154.905V32.7262H154.832C154.699 32.9838 154.512 33.2253 154.271 33.4506C154.033 33.672 153.733 33.8511 153.371 33.9879C153.013 34.1207 152.593 34.1871 152.11 34.1871ZM152.677 32.5813C153.116 32.5813 153.496 32.4948 153.818 32.3217C154.14 32.1446 154.387 31.9112 154.561 31.6214C154.738 31.3317 154.826 31.0157 154.826 30.6737V29.581C154.758 29.6373 154.641 29.6896 154.476 29.7379C154.315 29.7862 154.134 29.8285 153.933 29.8647C153.731 29.9009 153.532 29.9331 153.335 29.9613C153.138 29.9895 152.967 30.0136 152.822 30.0337C152.496 30.078 152.204 30.1504 151.947 30.2511C151.689 30.3517 151.486 30.4925 151.337 30.6737C151.188 30.8507 151.113 31.0801 151.113 31.3619C151.113 31.7643 151.26 32.0682 151.554 32.2734C151.848 32.4787 152.222 32.5813 152.677 32.5813ZM163.833 24.7273V26.4176H158.503V24.7273H163.833ZM159.819 22.5057H162.004V31.2109C162.004 31.5047 162.048 31.7301 162.137 31.8871C162.229 32.04 162.35 32.1446 162.499 32.201C162.648 32.2573 162.813 32.2855 162.994 32.2855C163.131 32.2855 163.256 32.2754 163.368 32.2553C163.485 32.2352 163.574 32.2171 163.634 32.201L164.002 33.9094C163.886 33.9497 163.719 33.994 163.501 34.0423C163.288 34.0906 163.026 34.1187 162.716 34.1268C162.169 34.1429 161.676 34.0604 161.237 33.8793C160.799 33.6941 160.451 33.4084 160.193 33.022C159.939 32.6357 159.815 32.1527 159.819 31.5732V22.5057ZM169.606 34.1811C168.701 34.1811 167.916 33.9819 167.252 33.5835C166.588 33.185 166.072 32.6276 165.706 31.9112C165.344 31.1948 165.163 30.3577 165.163 29.3999C165.163 28.442 165.344 27.6029 165.706 26.8825C166.072 26.162 166.588 25.6026 167.252 25.2042C167.916 24.8058 168.701 24.6065 169.606 24.6065C170.512 24.6065 171.296 24.8058 171.96 25.2042C172.625 25.6026 173.138 26.162 173.5 26.8825C173.866 27.6029 174.049 28.442 174.049 29.3999C174.049 30.3577 173.866 31.1948 173.5 31.9112C173.138 32.6276 172.625 33.185 171.96 33.5835C171.296 33.9819 170.512 34.1811 169.606 34.1811ZM169.618 32.4304C170.109 32.4304 170.52 32.2956 170.85 32.0259C171.18 31.7522 171.425 31.386 171.586 30.9272C171.751 30.4684 171.834 29.9573 171.834 29.3938C171.834 28.8263 171.751 28.3132 171.586 27.8544C171.425 27.3916 171.18 27.0233 170.85 26.7496C170.52 26.476 170.109 26.3391 169.618 26.3391C169.115 26.3391 168.697 26.476 168.362 26.7496C168.032 27.0233 167.785 27.3916 167.62 27.8544C167.459 28.3132 167.378 28.8263 167.378 29.3938C167.378 29.9573 167.459 30.4684 167.62 30.9272C167.785 31.386 168.032 31.7522 168.362 32.0259C168.697 32.2956 169.115 32.4304 169.618 32.4304Z" fill="white"/>
<path d="M196 28H210" stroke="white" stroke-width="1.5" stroke-linecap="round" stroke-linejoin="round"/>
<path d="M203 21L210 28L203 35" stroke="white" stroke-width="1.5" stroke-linecap="round" stroke-linejoin="round"/>
</g>
<defs>
<filter id="filter0_b_15_2652" x="-1" y="-1" width="245" height="58" filterUnits="userSpaceOnUse" color-interpolation-filters="sRGB">
<feFlood flood-opacity="0" result="BackgroundImageFix"/>
<feGaussianBlur in="BackgroundImageFix" stdDeviation="0.5"/>
<feComposite in2="SourceAlpha" operator="in" result="effect1_backgroundBlur_15_2652"/>
<feBlend mode="normal" in="SourceGraphic" in2="effect1_backgroundBlur_15_2652" result="shape"/>
</filter>
<linearGradient id="paint0_linear_15_2652" x1="-7.14079" y1="0" x2="248.755" y2="0" gradientUnits="userSpaceOnUse">
<stop stop-color="#FF1919" stop-opacity="0.1"/>
<stop offset="0.494792" stop-color="#E27815"/>
<stop offset="1" stop-color="#F9AA33" stop-opacity="0.1"/>
</linearGradient>
</defs>
</svg>
