<svg width="235" height="52" viewBox="0 0 235 52" fill="none" xmlns="http://www.w3.org/2000/svg">
<g filter="url(#filter0_b_3039_7)">
<rect width="235" height="52" rx="26" fill="url(#paint0_linear_3039_7)" fill-opacity="0.8"/>
<rect x="0.5" y="0.5" width="234" height="51" rx="25.5" stroke="white"/>
<path d="M35.2195 32V19.6364H43.2607V21.5138H37.4592V24.8704H42.8441V26.7479H37.4592V30.1225H43.3089V32H35.2195ZM55.7058 19.6364V32H53.7136L47.888 23.5785H47.7853V32H45.5456V19.6364H47.5499L53.3695 28.0639H53.4782V19.6364H55.7058ZM57.6029 21.5138V19.6364H67.4672V21.5138H63.6459V32H61.4243V21.5138H57.6029ZM69.3689 32V19.6364H74.0052C74.955 19.6364 75.7519 19.8014 76.3959 20.1314C77.0438 20.4614 77.5328 20.9242 77.8628 21.5199C78.1969 22.1115 78.3639 22.8017 78.3639 23.5906C78.3639 24.3834 78.1949 25.0716 77.8568 25.6552C77.5228 26.2347 77.0297 26.6835 76.3778 27.0014C75.7258 27.3153 74.9249 27.4723 73.9751 27.4723H70.6729V25.6129H73.6732C74.2286 25.6129 74.6834 25.5365 75.0376 25.3835C75.3917 25.2266 75.6533 24.9992 75.8224 24.7013C75.9954 24.3995 76.0819 24.0292 76.0819 23.5906C76.0819 23.1519 75.9954 22.7776 75.8224 22.4677C75.6493 22.1538 75.3857 21.9163 75.0315 21.7553C74.6773 21.5903 74.2206 21.5078 73.6611 21.5078H71.6086V32H69.3689ZM75.7559 26.3977L78.8167 32H76.3174L73.311 26.3977H75.7559ZM80.4255 32V19.6364H88.4667V21.5138H82.6652V24.8704H88.0502V26.7479H82.6652V30.1225H88.515V32H80.4255ZM94.9685 32V19.6364H103.01V21.5138H97.2082V24.8704H102.593V26.7479H97.2082V30.1225H103.058V32H94.9685ZM105.295 19.6364H108.035L111.706 28.5952H111.851L115.521 19.6364H118.262V32H116.113V23.506H115.998L112.581 31.9638H110.975L107.559 23.4879H107.444V32H105.295V19.6364ZM135.5 23.8079H133.243C133.178 23.4376 133.06 23.1096 132.886 22.8239C132.713 22.5341 132.498 22.2886 132.241 22.0874C131.983 21.8861 131.689 21.7352 131.359 21.6346C131.033 21.5299 130.681 21.4776 130.303 21.4776C129.631 21.4776 129.035 21.6467 128.516 21.9847C127.997 22.3188 127.59 22.8098 127.296 23.4577C127.002 24.1017 126.856 24.8885 126.856 25.8182C126.856 26.764 127.002 27.5608 127.296 28.2088C127.594 28.8527 128.001 29.3397 128.516 29.6697C129.035 29.9957 129.629 30.1587 130.297 30.1587C130.667 30.1587 131.013 30.1104 131.335 30.0138C131.661 29.9132 131.953 29.7663 132.21 29.5732C132.472 29.38 132.691 29.1425 132.868 28.8608C133.049 28.5791 133.174 28.2571 133.243 27.8949L135.5 27.907C135.416 28.4946 135.233 29.0459 134.951 29.5611C134.673 30.0762 134.309 30.531 133.858 30.9254C133.408 31.3158 132.88 31.6217 132.277 31.843C131.673 32.0604 131.003 32.169 130.266 32.169C129.18 32.169 128.21 31.9175 127.357 31.4144C126.503 30.9113 125.831 30.1849 125.34 29.2351C124.849 28.2853 124.604 27.1463 124.604 25.8182C124.604 24.486 124.851 23.3471 125.346 22.4013C125.841 21.4515 126.515 20.725 127.369 20.2219C128.222 19.7189 129.188 19.4673 130.266 19.4673C130.955 19.4673 131.595 19.5639 132.186 19.7571C132.778 19.9503 133.305 20.234 133.768 20.6083C134.231 20.9786 134.611 21.4334 134.909 21.9727C135.211 22.5079 135.408 23.1197 135.5 23.8079ZM148.599 25.8182C148.599 27.1503 148.35 28.2913 147.85 29.2411C147.355 30.1869 146.679 30.9113 145.822 31.4144C144.969 31.9175 144.001 32.169 142.918 32.169C141.836 32.169 140.866 31.9175 140.009 31.4144C139.155 30.9073 138.479 30.1809 137.98 29.2351C137.485 28.2853 137.238 27.1463 137.238 25.8182C137.238 24.486 137.485 23.3471 137.98 22.4013C138.479 21.4515 139.155 20.725 140.009 20.2219C140.866 19.7189 141.836 19.4673 142.918 19.4673C144.001 19.4673 144.969 19.7189 145.822 20.2219C146.679 20.725 147.355 21.4515 147.85 22.4013C148.35 23.3471 148.599 24.486 148.599 25.8182ZM146.347 25.8182C146.347 24.8804 146.2 24.0896 145.907 23.4457C145.617 22.7977 145.214 22.3087 144.699 21.9787C144.184 21.6446 143.59 21.4776 142.918 21.4776C142.246 21.4776 141.653 21.6446 141.137 21.9787C140.622 22.3087 140.218 22.7977 139.924 23.4457C139.634 24.0896 139.489 24.8804 139.489 25.8182C139.489 26.7559 139.634 27.5488 139.924 28.1967C140.218 28.8407 140.622 29.3297 141.137 29.6637C141.653 29.9937 142.246 30.1587 142.918 30.1587C143.59 30.1587 144.184 29.9937 144.699 29.6637C145.214 29.3297 145.617 28.8407 145.907 28.1967C146.2 27.5488 146.347 26.7559 146.347 25.8182ZM160.877 19.6364V32H158.885L153.059 23.5785H152.956V32H150.717V19.6364H152.721L158.54 28.0639H158.649V19.6364H160.877ZM162.774 21.5138V19.6364H172.638V21.5138H168.817V32H166.595V21.5138H162.774ZM174.633 32H172.243L176.595 19.6364H179.36L183.719 32H181.328L178.026 22.1719H177.93L174.633 32ZM174.712 27.1523H181.232V28.9513H174.712V27.1523ZM183.31 21.5138V19.6364H193.174V21.5138H189.353V32H187.131V21.5138H183.31ZM205.576 25.8182C205.576 27.1503 205.326 28.2913 204.827 29.2411C204.332 30.1869 203.656 30.9113 202.799 31.4144C201.945 31.9175 200.978 32.169 199.895 32.169C198.812 32.169 197.842 31.9175 196.985 31.4144C196.132 30.9073 195.456 30.1809 194.957 29.2351C194.462 28.2853 194.214 27.1463 194.214 25.8182C194.214 24.486 194.462 23.3471 194.957 22.4013C195.456 21.4515 196.132 20.725 196.985 20.2219C197.842 19.7189 198.812 19.4673 199.895 19.4673C200.978 19.4673 201.945 19.7189 202.799 20.2219C203.656 20.725 204.332 21.4515 204.827 22.4013C205.326 23.3471 205.576 24.486 205.576 25.8182ZM203.324 25.8182C203.324 24.8804 203.177 24.0896 202.883 23.4457C202.593 22.7977 202.191 22.3087 201.676 21.9787C201.161 21.6446 200.567 21.4776 199.895 21.4776C199.223 21.4776 198.629 21.6446 198.114 21.9787C197.599 22.3087 197.194 22.7977 196.901 23.4457C196.611 24.0896 196.466 24.8804 196.466 25.8182C196.466 26.7559 196.611 27.5488 196.901 28.1967C197.194 28.8407 197.599 29.3297 198.114 29.6637C198.629 29.9937 199.223 30.1587 199.895 30.1587C200.567 30.1587 201.161 29.9937 201.676 29.6637C202.191 29.3297 202.593 28.8407 202.883 28.1967C203.177 27.5488 203.324 26.7559 203.324 25.8182Z" fill="white"/>
</g>
<defs>
<filter id="filter0_b_3039_7" x="-1" y="-1" width="237" height="54" filterUnits="userSpaceOnUse" color-interpolation-filters="sRGB">
<feFlood flood-opacity="0" result="BackgroundImageFix"/>
<feGaussianBlur in="BackgroundImageFix" stdDeviation="0.5"/>
<feComposite in2="SourceAlpha" operator="in" result="effect1_backgroundBlur_3039_7"/>
<feBlend mode="normal" in="SourceGraphic" in2="effect1_backgroundBlur_3039_7" result="shape"/>
</filter>
<linearGradient id="paint0_linear_3039_7" x1="-26.7045" y1="26" x2="245.682" y2="26" gradientUnits="userSpaceOnUse">
<stop stop-color="#91ADBA"/>
<stop offset="1" stop-color="#205166" stop-opacity="0.12"/>
</linearGradient>
</defs>
</svg>
