<svg width="60" height="60" viewBox="0 0 60 60" fill="none" xmlns="http://www.w3.org/2000/svg">
<rect width="60" height="60" rx="30" fill="#EA6400"/>
<g clip-path="url(#clip0_3267_425)">
<path fill-rule="evenodd" clip-rule="evenodd" d="M21.8333 29.4167C21.8333 29.1072 21.9562 28.8105 22.175 28.5917C22.3938 28.3729 22.6906 28.25 23 28.25H24.1666C24.4761 28.25 24.7728 28.3729 24.9916 28.5917C25.2104 28.8105 25.3333 29.1072 25.3333 29.4167V30.5833C25.3333 30.8928 25.2104 31.1895 24.9916 31.4083C24.7728 31.6271 24.4761 31.75 24.1666 31.75H23C22.6906 31.75 22.3938 31.6271 22.175 31.4083C21.9562 31.1895 21.8333 30.8928 21.8333 30.5833V29.4167ZM24.1666 29.4167V30.5833H23V29.4167H24.1666ZM27.6666 28.25C27.3572 28.25 27.0605 28.3729 26.8417 28.5917C26.6229 28.8105 26.5 29.1072 26.5 29.4167V30.5833C26.5 30.8928 26.6229 31.1895 26.8417 31.4083C27.0605 31.6271 27.3572 31.75 27.6666 31.75H28.8333C29.1427 31.75 29.4395 31.6271 29.6583 31.4083C29.8771 31.1895 30 30.8928 30 30.5833V29.4167C30 29.1072 29.8771 28.8105 29.6583 28.5917C29.4395 28.3729 29.1427 28.25 28.8333 28.25H27.6666ZM28.8333 29.4167H27.6666V30.5833H28.8333V29.4167ZM31.1666 29.4167C31.1666 29.1072 31.2896 28.8105 31.5084 28.5917C31.7271 28.3729 32.0239 28.25 32.3333 28.25H33.5C33.8094 28.25 34.1061 28.3729 34.3249 28.5917C34.5437 28.8105 34.6666 29.1072 34.6666 29.4167V30.5833C34.6666 30.8928 34.5437 31.1895 34.3249 31.4083C34.1061 31.6271 33.8094 31.75 33.5 31.75H32.3333C32.0239 31.75 31.7271 31.6271 31.5084 31.4083C31.2896 31.1895 31.1666 30.8928 31.1666 30.5833V29.4167ZM32.3333 29.4167H33.5V30.5833H32.3333V29.4167ZM23 32.9167C22.6906 32.9167 22.3938 33.0396 22.175 33.2584C21.9562 33.4772 21.8333 33.7739 21.8333 34.0833V35.25C21.8333 35.5594 21.9562 35.8562 22.175 36.075C22.3938 36.2938 22.6906 36.4167 23 36.4167H24.1666C24.4761 36.4167 24.7728 36.2938 24.9916 36.075C25.2104 35.8562 25.3333 35.5594 25.3333 35.25V34.0833C25.3333 33.7739 25.2104 33.4772 24.9916 33.2584C24.7728 33.0396 24.4761 32.9167 24.1666 32.9167H23ZM23 34.0833V35.25H24.1666V34.0833H23ZM26.5 34.0833C26.5 33.7739 26.6229 33.4772 26.8417 33.2584C27.0605 33.0396 27.3572 32.9167 27.6666 32.9167H28.8333C29.1427 32.9167 29.4395 33.0396 29.6583 33.2584C29.8771 33.4772 30 33.7739 30 34.0833V35.25C30 35.5594 29.8771 35.8562 29.6583 36.075C29.4395 36.2938 29.1427 36.4167 28.8333 36.4167H27.6666C27.3572 36.4167 27.0605 36.2938 26.8417 36.075C26.6229 35.8562 26.5 35.5594 26.5 35.25V34.0833ZM27.6666 34.0833H28.8333V35.25H27.6666V34.0833Z" fill="white"/>
<path d="M36.4166 34.375C36.5714 34.375 36.7197 34.4365 36.8291 34.5459C36.9385 34.6553 37 34.8036 37 34.9583V36.1752L37.4124 36.5876C37.5187 36.6976 37.5775 36.845 37.5761 36.9979C37.5748 37.1508 37.5134 37.2972 37.4053 37.4053C37.2971 37.5135 37.1508 37.5748 36.9979 37.5761C36.8449 37.5775 36.6976 37.5187 36.5876 37.4124L35.8333 36.6582V34.9583C35.8333 34.8036 35.8948 34.6553 36.0042 34.5459C36.1136 34.4365 36.2619 34.375 36.4166 34.375Z" fill="white"/>
<path fill-rule="evenodd" clip-rule="evenodd" d="M23 20.0833C23 19.9286 23.0615 19.7803 23.1709 19.6709C23.2803 19.5615 23.4286 19.5 23.5833 19.5C23.738 19.5 23.8864 19.5615 23.9958 19.6709C24.1052 19.7803 24.1667 19.9286 24.1667 20.0833V23C24.1667 23.1547 24.1052 23.3031 23.9958 23.4125C23.8864 23.5219 23.738 23.5833 23.5833 23.5833C23.4286 23.5833 23.2803 23.5219 23.1709 23.4125C23.0615 23.3031 23 23.1547 23 23V22.4167H21.25C21.0953 22.4167 20.9469 22.4781 20.8375 22.5875C20.7281 22.6969 20.6667 22.8453 20.6667 23V25.3333H35.8333V23C35.8333 22.8453 35.7719 22.6969 35.6625 22.5875C35.5531 22.4781 35.4047 22.4167 35.25 22.4167H33.5V21.25H35.25C35.7141 21.25 36.1592 21.4344 36.4874 21.7626C36.8156 22.0908 37 22.5359 37 23V32.3742C38.0217 32.5218 38.9496 33.051 39.597 33.8552C40.2444 34.6593 40.5632 35.6788 40.4892 36.7085C40.4153 37.7382 39.9542 38.7017 39.1986 39.4052C38.443 40.1086 37.449 40.4998 36.4167 40.5C35.7583 40.5005 35.1096 40.3416 34.526 40.0369C33.9424 39.7321 33.4412 39.2906 33.0654 38.75H21.25C20.7859 38.75 20.3408 38.5656 20.0126 38.2374C19.6844 37.9092 19.5 37.4641 19.5 37V23C19.5 22.5359 19.6844 22.0908 20.0126 21.7626C20.3408 21.4344 20.7859 21.25 21.25 21.25H23V20.0833ZM32.3333 36.4167C32.3331 35.4346 32.6868 34.4853 33.3296 33.7428C33.9724 33.0004 34.8613 32.5145 35.8333 32.3742V26.5H20.6667V37C20.6667 37.1547 20.7281 37.3031 20.8375 37.4125C20.9469 37.5219 21.0953 37.5833 21.25 37.5833H32.5025C32.39 37.2047 32.333 36.8117 32.3333 36.4167ZM36.4167 39.3333C37.1902 39.3333 37.9321 39.026 38.4791 38.4791C39.026 37.9321 39.3333 37.1902 39.3333 36.4167C39.3333 35.6431 39.026 34.9013 38.4791 34.3543C37.9321 33.8073 37.1902 33.5 36.4167 33.5C35.6431 33.5 34.9013 33.8073 34.3543 34.3543C33.8073 34.9013 33.5 35.6431 33.5 36.4167C33.5 37.1902 33.8073 37.9321 34.3543 38.4791C34.9013 39.026 35.6431 39.3333 36.4167 39.3333Z" fill="white"/>
<path d="M31.75 23.5833C31.5953 23.5833 31.4469 23.5219 31.3375 23.4125C31.2281 23.3031 31.1666 23.1547 31.1666 23V22.4167H25.3333V21.25H31.1666V20.0833C31.1666 19.9286 31.2281 19.7803 31.3375 19.6709C31.4469 19.5615 31.5953 19.5 31.75 19.5C31.9047 19.5 32.0531 19.5615 32.1625 19.6709C32.2719 19.7803 32.3333 19.9286 32.3333 20.0833V23C32.3333 23.1547 32.2719 23.3031 32.1625 23.4125C32.0531 23.5219 31.9047 23.5833 31.75 23.5833Z" fill="white"/>
</g>
<defs>
<clipPath id="clip0_3267_425">
<rect width="28" height="28" fill="white" transform="translate(16 16)"/>
</clipPath>
</defs>
</svg>
