<svg width="60" height="60" viewBox="0 0 60 60" fill="none" xmlns="http://www.w3.org/2000/svg">
<rect width="60" height="60" rx="30" fill="#EA6400"/>
<g clip-path="url(#clip0_3267_400)">
<path d="M26.5 17.7535C25.5717 17.7535 24.6815 18.1222 24.0251 18.7786C23.3687 19.435 23 20.3252 23 21.2535V25.1122C23.5721 24.9505 24.1579 24.8421 24.75 24.7885V21.2535C24.75 20.7893 24.9344 20.3442 25.2626 20.016C25.5908 19.6878 26.0359 19.5035 26.5 19.5035H31.75V23.8785C31.75 24.5747 32.0266 25.2423 32.5188 25.7346C33.0111 26.2269 33.6788 26.5035 34.375 26.5035H38.75V38.7465C38.75 39.2106 38.5656 39.6557 38.2374 39.9839C37.9092 40.3121 37.4641 40.4965 37 40.4965H33.052C32.5013 41.1638 31.8725 41.7471 31.1655 42.2465H37C37.9283 42.2465 38.8185 41.8777 39.4749 41.2213C40.1313 40.565 40.5 39.6747 40.5 38.7465V25.4815C40.4994 24.7855 40.2224 24.1183 39.73 23.6265L34.6235 18.5217C34.1317 18.0293 33.4645 17.7523 32.7685 17.7517L26.5 17.7535ZM33.5 23.8785V19.871L38.3843 24.7535H34.375C34.1429 24.7535 33.9204 24.6613 33.7563 24.4972C33.5922 24.3331 33.5 24.1105 33.5 23.8785ZM33.5 34.375C33.5 36.4635 32.6703 38.4666 31.1935 39.9434C29.7166 41.4203 27.7136 42.25 25.625 42.25C23.5364 42.25 21.5334 41.4203 20.0565 39.9434C18.5797 38.4666 17.75 36.4635 17.75 34.375C17.75 32.2864 18.5797 30.2833 20.0565 28.8065C21.5334 27.3296 23.5364 26.5 25.625 26.5C27.7136 26.5 29.7166 27.3296 31.1935 28.8065C32.6703 30.2833 33.5 32.2864 33.5 34.375ZM25.625 30C25.3929 30 25.1704 30.0921 25.0063 30.2562C24.8422 30.4203 24.75 30.6429 24.75 30.875V34.375C24.75 34.607 24.8422 34.8296 25.0063 34.9937C25.1704 35.1578 25.3929 35.25 25.625 35.25C25.8571 35.25 26.0796 35.1578 26.2437 34.9937C26.4078 34.8296 26.5 34.607 26.5 34.375V30.875C26.5 30.6429 26.4078 30.4203 26.2437 30.2562C26.0796 30.0921 25.8571 30 25.625 30ZM25.625 38.9687C25.9151 38.9687 26.1933 38.8535 26.3984 38.6484C26.6035 38.4432 26.7188 38.165 26.7188 37.875C26.7188 37.5849 26.6035 37.3067 26.3984 37.1016C26.1933 36.8964 25.9151 36.7812 25.625 36.7812C25.3349 36.7812 25.0567 36.8964 24.8516 37.1016C24.6465 37.3067 24.5312 37.5849 24.5312 37.875C24.5312 38.165 24.6465 38.4432 24.8516 38.6484C25.0567 38.8535 25.3349 38.9687 25.625 38.9687Z" fill="white"/>
</g>
<defs>
<clipPath id="clip0_3267_400">
<rect width="28" height="28" fill="white" transform="translate(16 16)"/>
</clipPath>
</defs>
</svg>
