<svg width="76" height="59" viewBox="0 0 76 59" fill="none" xmlns="http://www.w3.org/2000/svg">
<path d="M5 4.78125C5 2.1416 7.21719 0 9.95 0H39.65C42.3828 0 44.6 2.1416 44.6 4.78125V46.2188C44.6 48.8584 42.3828 51 39.65 51H29.75V43.0312C29.75 40.3916 27.5328 38.25 24.8 38.25C22.0672 38.25 19.85 40.3916 19.85 43.0312V51H9.95C7.21719 51 5 48.8584 5 46.2188V4.78125ZM13.25 22.3125C12.3425 22.3125 11.6 23.0297 11.6 23.9062V27.0938C11.6 27.9703 12.3425 28.6875 13.25 28.6875H16.55C17.4575 28.6875 18.2 27.9703 18.2 27.0938V23.9062C18.2 23.0297 17.4575 22.3125 16.55 22.3125H13.25ZM21.5 23.9062V27.0938C21.5 27.9703 22.2425 28.6875 23.15 28.6875H26.45C27.3575 28.6875 28.1 27.9703 28.1 27.0938V23.9062C28.1 23.0297 27.3575 22.3125 26.45 22.3125H23.15C22.2425 22.3125 21.5 23.0297 21.5 23.9062ZM33.05 22.3125C32.1425 22.3125 31.4 23.0297 31.4 23.9062V27.0938C31.4 27.9703 32.1425 28.6875 33.05 28.6875H36.35C37.2575 28.6875 38 27.9703 38 27.0938V23.9062C38 23.0297 37.2575 22.3125 36.35 22.3125H33.05ZM11.6 11.1562V14.3438C11.6 15.2203 12.3425 15.9375 13.25 15.9375H16.55C17.4575 15.9375 18.2 15.2203 18.2 14.3438V11.1562C18.2 10.2797 17.4575 9.5625 16.55 9.5625H13.25C12.3425 9.5625 11.6 10.2797 11.6 11.1562ZM23.15 9.5625C22.2425 9.5625 21.5 10.2797 21.5 11.1562V14.3438C21.5 15.2203 22.2425 15.9375 23.15 15.9375H26.45C27.3575 15.9375 28.1 15.2203 28.1 14.3438V11.1562C28.1 10.2797 27.3575 9.5625 26.45 9.5625H23.15ZM31.4 11.1562V14.3438C31.4 15.2203 32.1425 15.9375 33.05 15.9375H36.35C37.2575 15.9375 38 15.2203 38 14.3438V11.1562C38 10.2797 37.2575 9.5625 36.35 9.5625H33.05C32.1425 9.5625 31.4 10.2797 31.4 11.1562ZM71 19.125V20.7188C71 25.1215 67.3081 28.6875 62.75 28.6875H61.1V27.0938C61.1 22.691 64.7919 19.125 69.35 19.125H71ZM71 31.875C71 36.2777 67.3081 39.8438 62.75 39.8438H61.1V38.25C61.1 33.8473 64.7919 30.2812 69.35 30.2812H71V31.875ZM71 43.0312C71 47.434 67.3081 51 62.75 51H61.1V49.4062C61.1 45.0035 64.7919 41.4375 69.35 41.4375H71V43.0312ZM57.8 49.4062V51H56.15C51.5919 51 47.9 47.434 47.9 43.0312V41.4375H49.55C54.1081 41.4375 57.8 45.0035 57.8 49.4062ZM57.8 39.8438H56.15C51.5919 39.8438 47.9 36.2777 47.9 31.875V30.2812H49.55C54.1081 30.2812 57.8 33.8473 57.8 38.25V39.8438ZM57.8 27.0938V28.6875H56.15C51.5919 28.6875 47.9 25.1215 47.9 20.7188V19.125H49.55C54.1081 19.125 57.8 22.691 57.8 27.0938ZM59.45 3.1875C60.8216 3.1875 61.925 4.25332 61.925 5.57812V15.9375C61.925 17.2623 60.8216 18.3281 59.45 18.3281C58.0784 18.3281 56.975 17.2623 56.975 15.9375V5.57812C56.975 4.25332 58.0784 3.1875 59.45 3.1875ZM69.35 9.5625V12.75C69.35 14.0748 68.2466 15.1406 66.875 15.1406C65.5034 15.1406 64.4 14.0748 64.4 12.75V9.5625C64.4 8.2377 65.5034 7.17188 66.875 7.17188C68.2466 7.17188 69.35 8.2377 69.35 9.5625ZM52.025 7.17188C53.3966 7.17188 54.5 8.2377 54.5 9.5625V12.75C54.5 14.0748 53.3966 15.1406 52.025 15.1406C50.6534 15.1406 49.55 14.0748 49.55 12.75V9.5625C49.55 8.2377 50.6534 7.17188 52.025 7.17188Z" fill="white"/>
</svg>
