<svg width="51" height="51" viewBox="0 0 51 51" fill="none" xmlns="http://www.w3.org/2000/svg">
<g clip-path="url(#clip0_3037_321)">
<path d="M9.16683 3.40002C7.84075 3.40002 6.56898 3.93734 5.6313 4.89378C4.69361 5.85022 4.16683 7.14742 4.16683 8.50002V35.7C4.16683 37.0526 4.69361 38.3498 5.6313 39.3063C6.56898 40.2627 7.84075 40.8 9.16683 40.8H42.5002C43.8262 40.8 45.098 40.2627 46.0357 39.3063C46.9734 38.3498 47.5002 37.0526 47.5002 35.7V8.50002C47.5002 7.14742 46.9734 5.85022 46.0357 4.89378C45.098 3.93734 43.8262 3.40002 42.5002 3.40002H9.16683ZM0.833496 47.6H50.8335V44.2H0.833496V47.6Z" fill="white"/>
</g>
<defs>
<clipPath id="clip0_3037_321">
<rect width="50" height="51" fill="white" transform="translate(0.833496)"/>
</clipPath>
</defs>
</svg>
