<svg width="60" height="60" viewBox="0 0 60 60" fill="none" xmlns="http://www.w3.org/2000/svg">
<rect width="60" height="60" rx="30" fill="#EA6400"/>
<g clip-path="url(#clip0_3267_410)">
<path d="M39.3333 35.8333H41.6667V33.4999H39.3333V35.8333ZM39.3333 24.1666V31.1666H41.6667V24.1666M23 34.6666H28.8333V36.9999H23M23 29.9999H32.3333V32.3333H23M20.6667 18.3333C19.3717 18.3333 18.3333 19.3716 18.3333 20.6666V39.3333C18.3333 40.6283 19.3717 41.6666 20.6667 41.6666H34.6667C35.9617 41.6666 37 40.6283 37 39.3333V25.3333L30 18.3333M20.6667 20.6666H28.8333V26.4999H34.6667V39.3333H20.6667V20.6666Z" fill="white"/>
</g>
<defs>
<clipPath id="clip0_3267_410">
<rect width="28" height="28" fill="white" transform="translate(16 16)"/>
</clipPath>
</defs>
</svg>
