<svg width="60" height="60" viewBox="0 0 60 60" fill="none" xmlns="http://www.w3.org/2000/svg">
<rect width="60" height="60" rx="30" fill="#1A1D22"/>
<path d="M30.0001 32.0417C33.6984 32.0417 36.7084 29.0317 36.7084 25.3333C36.7084 21.635 33.6984 18.625 30.0001 18.625C26.3017 18.625 23.2917 21.635 23.2917 25.3333C23.2917 29.0317 26.3017 32.0417 30.0001 32.0417ZM30.0001 20.375C32.7301 20.375 34.9584 22.6033 34.9584 25.3333C34.9584 28.0633 32.7301 30.2917 30.0001 30.2917C27.2701 30.2917 25.0417 28.0633 25.0417 25.3333C25.0417 22.6033 27.2701 20.375 30.0001 20.375Z" fill="white"/>
<path d="M38.0034 33.4068C34.69 31.9601 31.4234 32.7184 30 34.2701C28.5884 32.7184 25.31 31.9601 21.9967 33.4068C21.6 33.5818 21.39 34.0134 21.5067 34.4334C22.475 38.0268 25.275 40.1618 27.3984 40.1618C27.4684 40.1618 27.5267 40.1618 27.5967 40.1618C28.495 40.1034 29.3234 39.6601 30 38.9134C30.6767 39.6601 31.505 40.1034 32.4034 40.1618C32.4617 40.1618 32.5317 40.1618 32.6017 40.1618C34.725 40.1618 37.525 38.0268 38.4934 34.4334C38.61 34.0134 38.4 33.5818 38.0034 33.4068ZM28.9967 37.3968C28.6817 37.8634 28.1684 38.3768 27.4917 38.4118C26.3717 38.4584 24.3884 37.2101 23.4434 34.7251C25.975 33.9084 28.1917 34.6434 28.845 35.5768C29.2417 36.1368 29.1484 36.8484 28.9967 37.3851V37.3968ZM32.52 38.4118C31.8434 38.3651 31.33 37.8518 31.015 37.3968C30.8517 36.8601 30.77 36.1368 31.1667 35.5884C31.82 34.6668 34.0367 33.9201 36.5684 34.7368C35.6234 37.2218 33.71 38.4584 32.52 38.4234V38.4118Z" fill="white"/>
<path d="M28.8333 26.2083H31.1666C31.6449 26.2083 32.0416 25.8116 32.0416 25.3333C32.0416 24.8549 31.6449 24.4583 31.1666 24.4583H28.8333C28.3549 24.4583 27.9583 24.8549 27.9583 25.3333C27.9583 25.8116 28.3549 26.2083 28.8333 26.2083Z" fill="white"/>
</svg>
