<svg width="60" height="60" viewBox="0 0 60 60" fill="none" xmlns="http://www.w3.org/2000/svg">
<rect width="60" height="60" rx="30" fill="#EA6400"/>
<g clip-path="url(#clip0_3267_442)">
<path d="M31.3125 35.6875C31.3125 35.9471 31.2355 36.2008 31.0913 36.4167C30.9471 36.6325 30.7421 36.8008 30.5023 36.9001C30.2624 36.9994 29.9985 37.0254 29.7439 36.9748C29.4893 36.9241 29.2555 36.7991 29.0719 36.6156C28.8884 36.432 28.7634 36.1982 28.7127 35.9436C28.6621 35.689 28.6881 35.4251 28.7874 35.1852C28.8868 34.9454 29.055 34.7404 29.2708 34.5962C29.4867 34.452 29.7404 34.375 30 34.375C30.3481 34.375 30.6819 34.5133 30.9281 34.7594C31.1742 35.0056 31.3125 35.3394 31.3125 35.6875ZM30 23.875C27.5872 23.875 25.625 25.6414 25.625 27.8125V28.25C25.625 28.4821 25.7172 28.7046 25.8813 28.8687C26.0454 29.0328 26.2679 29.125 26.5 29.125C26.7321 29.125 26.9546 29.0328 27.1187 28.8687C27.2828 28.7046 27.375 28.4821 27.375 28.25V27.8125C27.375 26.6094 28.553 25.625 30 25.625C31.447 25.625 32.625 26.6094 32.625 27.8125C32.625 29.0156 31.447 30 30 30C29.7679 30 29.5454 30.0922 29.3813 30.2563C29.2172 30.4204 29.125 30.6429 29.125 30.875V31.75C29.125 31.9821 29.2172 32.2046 29.3813 32.3687C29.5454 32.5328 29.7679 32.625 30 32.625C30.2321 32.625 30.4546 32.5328 30.6187 32.3687C30.7828 32.2046 30.875 31.9821 30.875 31.75V31.6712C32.87 31.3048 34.375 29.7134 34.375 27.8125C34.375 25.6414 32.4128 23.875 30 23.875ZM41.375 30C41.375 32.2498 40.7079 34.449 39.458 36.3196C38.2081 38.1902 36.4315 39.6482 34.353 40.5091C32.2745 41.3701 29.9874 41.5953 27.7809 41.1564C25.5743 40.7175 23.5475 39.6342 21.9567 38.0433C20.3658 36.4525 19.2825 34.4257 18.8436 32.2192C18.4047 30.0126 18.6299 27.7255 19.4909 25.647C20.3518 23.5685 21.8098 21.7919 23.6804 20.542C25.551 19.2921 27.7502 18.625 30 18.625C33.0159 18.6282 35.9073 19.8276 38.0398 21.9602C40.1724 24.0927 41.3718 26.9841 41.375 30ZM39.625 30C39.625 28.0964 39.0605 26.2355 38.0029 24.6526C36.9453 23.0698 35.4421 21.8362 33.6833 21.1077C31.9246 20.3792 29.9893 20.1886 28.1223 20.5599C26.2552 20.9313 24.5402 21.848 23.1941 23.1941C21.848 24.5402 20.9313 26.2552 20.5599 28.1223C20.1886 29.9893 20.3792 31.9246 21.1077 33.6833C21.8362 35.4421 23.0698 36.9453 24.6526 38.0029C26.2355 39.0605 28.0964 39.625 30 39.625C32.5518 39.6221 34.9983 38.6071 36.8027 36.8027C38.6071 34.9983 39.6221 32.5518 39.625 30Z" fill="white"/>
</g>
<defs>
<clipPath id="clip0_3267_442">
<rect width="28" height="28" fill="white" transform="translate(16 16)"/>
</clipPath>
</defs>
</svg>
