<svg width="60" height="60" viewBox="0 0 60 60" fill="none" xmlns="http://www.w3.org/2000/svg">
<rect width="60" height="60" rx="30" fill="#EA6400"/>
<g clip-path="url(#clip0_3267_451)">
<path d="M31.75 26.5H38.849C38.8706 26.4999 38.8916 26.4935 38.9095 26.4814C38.9274 26.4694 38.9414 26.4524 38.9496 26.4324C38.9578 26.4125 38.96 26.3906 38.9558 26.3694C38.9516 26.3483 38.9413 26.3288 38.9261 26.3135L31.0615 18.4489C31.0462 18.4337 31.0267 18.4234 31.0056 18.4192C30.9844 18.415 30.9625 18.4172 30.9426 18.4254C30.9227 18.4337 30.9056 18.4476 30.8936 18.4655C30.8816 18.4834 30.8751 18.5045 30.875 18.526V25.625C30.875 25.8571 30.9672 26.0796 31.1313 26.2437C31.2954 26.4078 31.5179 26.5 31.75 26.5ZM30 30.875C29.5177 30.875 29.125 31.2185 29.125 31.6406V32.625H30.875V31.6406C30.875 31.2185 30.4823 30.875 30 30.875Z" fill="white"/>
<path d="M39.4062 28.25H31.75C31.0538 28.25 30.3861 27.9734 29.8938 27.4812C29.4016 26.9889 29.125 26.3212 29.125 25.625V17.9688C29.125 17.9107 29.102 17.8551 29.0609 17.8141C29.0199 17.773 28.9643 17.75 28.9062 17.75H23.875C22.9467 17.75 22.0565 18.1187 21.4001 18.7751C20.7437 19.4315 20.375 20.3217 20.375 21.25V38.75C20.375 39.6783 20.7437 40.5685 21.4001 41.2249C22.0565 41.8813 22.9467 42.25 23.875 42.25H36.125C37.0533 42.25 37.9435 41.8813 38.5999 41.2249C39.2563 40.5685 39.625 39.6783 39.625 38.75V28.4688C39.625 28.4107 39.602 28.3551 39.5609 28.3141C39.5199 28.273 39.4643 28.25 39.4062 28.25ZM34.375 37C34.375 37.4641 34.1906 37.9092 33.8624 38.2374C33.5342 38.5656 33.0891 38.75 32.625 38.75H27.375C26.9109 38.75 26.4658 38.5656 26.1376 38.2374C25.8094 37.9092 25.625 37.4641 25.625 37V34.375C25.625 33.9109 25.8094 33.4658 26.1376 33.1376C26.4658 32.8094 26.9109 32.625 27.375 32.625V31.6406C27.375 30.2537 28.5524 29.125 30 29.125C31.4476 29.125 32.625 30.2537 32.625 31.6406V32.625C33.0891 32.625 33.5342 32.8094 33.8624 33.1376C34.1906 33.4658 34.375 33.9109 34.375 34.375V37Z" fill="white"/>
</g>
<defs>
<clipPath id="clip0_3267_451">
<rect width="28" height="28" fill="white" transform="translate(16 16)"/>
</clipPath>
</defs>
</svg>
