<svg width="60" height="60" viewBox="0 0 60 60" fill="none" xmlns="http://www.w3.org/2000/svg">
<rect width="60" height="60" rx="30" fill="#1A1D22"/>
<path d="M38.1667 18.625H24.1667C22.3933 18.625 20.9583 20.06 20.9583 21.8333V23.2917H19.5C19.0217 23.2917 18.625 23.6883 18.625 24.1667C18.625 24.645 19.0217 25.0417 19.5 25.0417H20.9583V29.125H19.5C19.0217 29.125 18.625 29.5217 18.625 30C18.625 30.4783 19.0217 30.875 19.5 30.875H20.9583V34.9583H19.5C19.0217 34.9583 18.625 35.355 18.625 35.8333C18.625 36.3117 19.0217 36.7083 19.5 36.7083H20.9583V38.1667C20.9583 39.94 22.3933 41.375 24.1667 41.375H38.1667C39.94 41.375 41.375 39.94 41.375 38.1667V21.8333C41.375 20.06 39.94 18.625 38.1667 18.625ZM39.625 38.1667C39.625 38.9717 38.9717 39.625 38.1667 39.625H24.1667C23.3617 39.625 22.7083 38.9717 22.7083 38.1667V36.7083H23C23.4783 36.7083 23.875 36.3117 23.875 35.8333C23.875 35.355 23.4783 34.9583 23 34.9583H22.7083V30.875H23C23.4783 30.875 23.875 30.4783 23.875 30C23.875 29.5217 23.4783 29.125 23 29.125H22.7083V25.0417H23C23.4783 25.0417 23.875 24.645 23.875 24.1667C23.875 23.6883 23.4783 23.2917 23 23.2917H22.7083V21.8333C22.7083 21.0283 23.3617 20.375 24.1667 20.375H38.1667C38.9717 20.375 39.625 21.0283 39.625 21.8333V38.1667Z" fill="white"/>
<path d="M31.1668 29.7084C32.9402 29.7084 34.3752 28.2734 34.3752 26.5001C34.3752 24.7267 32.9402 23.2917 31.1668 23.2917C29.3935 23.2917 27.9585 24.7267 27.9585 26.5001C27.9585 28.2734 29.3935 29.7084 31.1668 29.7084ZM31.1668 25.0417C31.9718 25.0417 32.6252 25.6951 32.6252 26.5001C32.6252 27.3051 31.9718 27.9584 31.1668 27.9584C30.3618 27.9584 29.7085 27.3051 29.7085 26.5001C29.7085 25.6951 30.3618 25.0417 31.1668 25.0417Z" fill="white"/>
<path d="M32.3332 31.4583H29.9998C28.2265 31.4583 26.7915 32.8933 26.7915 34.6666V35.8333C26.7915 36.3116 27.1882 36.7083 27.6665 36.7083C28.1448 36.7083 28.5415 36.3116 28.5415 35.8333V34.6666C28.5415 33.8616 29.1948 33.2083 29.9998 33.2083H32.3332C33.1382 33.2083 33.7915 33.8616 33.7915 34.6666V35.8333C33.7915 36.3116 34.1882 36.7083 34.6665 36.7083C35.1448 36.7083 35.5415 36.3116 35.5415 35.8333V34.6666C35.5415 32.8933 34.1065 31.4583 32.3332 31.4583Z" fill="white"/>
</svg>
