<svg width="62" height="59" viewBox="0 0 62 59" fill="none" xmlns="http://www.w3.org/2000/svg">
<path d="M53.5417 9.83331H7.79167C7.11757 9.83331 6.47109 10.0923 5.99444 10.5533C5.51778 11.0144 5.25 11.6397 5.25 12.2916V46.7083C5.25 47.3603 5.51778 47.9856 5.99444 48.4466C6.47109 48.9076 7.11757 49.1666 7.79167 49.1666H53.5417C54.2158 49.1666 54.8622 48.9076 55.3389 48.4466C55.8156 47.9856 56.0833 47.3603 56.0833 46.7083V12.2916C56.0833 11.6397 55.8156 11.0144 55.3389 10.5533C54.8622 10.0923 54.2158 9.83331 53.5417 9.83331ZM51 36.875C48.9777 36.875 47.0383 37.652 45.6083 39.0351C44.1783 40.4181 43.375 42.294 43.375 44.25H17.9583C17.9583 42.294 17.155 40.4181 15.725 39.0351C14.2951 37.652 12.3556 36.875 10.3333 36.875V22.125C12.3556 22.125 14.2951 21.348 15.725 19.9649C17.155 18.5818 17.9583 16.706 17.9583 14.75H43.375C43.375 16.706 44.1783 18.5818 45.6083 19.9649C47.0383 21.348 48.9777 22.125 51 22.125V36.875Z" fill="white"/>
<path d="M30.6667 19.6667C25.0597 19.6667 20.5 24.0769 20.5 29.5C20.5 34.9231 25.0597 39.3334 30.6667 39.3334C36.2736 39.3334 40.8333 34.9231 40.8333 29.5C40.8333 24.0769 36.2736 19.6667 30.6667 19.6667ZM30.6667 34.4167C27.8632 34.4167 25.5833 32.2116 25.5833 29.5C25.5833 26.7885 27.8632 24.5834 30.6667 24.5834C33.4701 24.5834 35.75 26.7885 35.75 29.5C35.75 32.2116 33.4701 34.4167 30.6667 34.4167Z" fill="white"/>
</svg>
