<svg width="60" height="60" viewBox="0 0 60 60" fill="none" xmlns="http://www.w3.org/2000/svg">
<rect width="60" height="60" rx="30" fill="#EA6400"/>
<g clip-path="url(#clip0_3267_389)">
<path fill-rule="evenodd" clip-rule="evenodd" d="M24.337 24.1269C23.4443 25.0068 22.762 26.077 22.3411 27.2577C21.9202 28.4383 21.7717 29.6988 21.9066 30.9449C21.9456 31.3144 21.8362 31.6842 21.6025 31.973C21.3689 32.2618 21.03 32.446 20.6606 32.4849C20.2911 32.5239 19.9213 32.4146 19.6325 32.1809C19.3437 31.9472 19.1596 31.6084 19.1206 31.2389C18.9418 29.5744 19.1413 27.8909 19.7042 26.3142C20.2671 24.7375 21.1788 23.3083 22.3714 22.1333C26.7618 17.8045 33.8374 17.8773 38.176 22.2761C42.516 26.6763 42.4894 33.7533 38.1004 38.0821C36.0684 40.0897 33.3404 41.236 30.4844 41.2825C29.405 41.3016 28.3285 41.1648 27.2882 40.8765C27.1069 40.8313 26.9365 40.7503 26.787 40.6382C26.6375 40.5261 26.512 40.3852 26.4178 40.2238C26.3237 40.0624 26.2628 39.8838 26.2387 39.6985C26.2146 39.5133 26.2279 39.325 26.2777 39.1449C26.3275 38.9649 26.4128 38.7966 26.5287 38.65C26.6446 38.5034 26.7886 38.3815 26.9523 38.2915C27.116 38.2014 27.2961 38.1451 27.482 38.1257C27.6678 38.1063 27.8556 38.1244 28.0344 38.1787C28.8154 38.3952 29.6237 38.4976 30.434 38.4825C32.5713 38.4488 34.6131 37.5912 36.1334 36.0885C39.4136 32.8545 39.4444 27.5499 36.1824 24.2431C32.9204 20.9349 27.6158 20.8929 24.337 24.1269Z" fill="white"/>
<path fill-rule="evenodd" clip-rule="evenodd" d="M21.5538 32.3728C21.4315 32.5102 21.2834 32.6221 21.1179 32.7022C20.9524 32.7823 20.7727 32.829 20.5892 32.8397C20.4056 32.8504 20.2217 32.8248 20.0481 32.7643C19.8744 32.7039 19.7143 32.6099 19.577 32.4876L17.169 30.3456C16.8916 30.0987 16.7237 29.7517 16.7022 29.381C16.6807 29.0103 16.8073 28.6462 17.0542 28.3688C17.3011 28.0915 17.6481 27.9235 18.0188 27.902C18.3895 27.8805 18.7536 28.0071 19.031 28.254L21.439 30.396C21.5764 30.5183 21.6883 30.6664 21.7684 30.8319C21.8485 30.9974 21.8952 31.1771 21.9059 31.3606C21.9165 31.5442 21.8909 31.7281 21.8305 31.9018C21.7701 32.0754 21.6761 32.2355 21.5538 32.3728Z" fill="white"/>
<path fill-rule="evenodd" clip-rule="evenodd" d="M19.388 32.2399C19.4983 32.387 19.6365 32.5109 19.7947 32.6046C19.9529 32.6982 20.128 32.7598 20.31 32.7858C20.492 32.8118 20.6773 32.8017 20.8554 32.7561C21.0335 32.7105 21.2009 32.6302 21.348 32.5199L24.148 30.4199C24.445 30.1971 24.6414 29.8655 24.6939 29.4979C24.7464 29.1303 24.6508 28.7569 24.428 28.4599C24.2052 28.1629 23.8735 27.9665 23.506 27.914C23.1384 27.8615 22.765 27.9571 22.468 28.1799L19.668 30.2799C19.5209 30.3902 19.397 30.5284 19.3033 30.6866C19.2096 30.8448 19.148 31.0199 19.122 31.2019C19.096 31.3839 19.1061 31.5693 19.1518 31.7474C19.1974 31.9255 19.2777 32.0928 19.388 32.2399ZM30 24.3999C30.3713 24.3999 30.7274 24.5474 30.9899 24.81C31.2525 25.0725 31.4 25.4286 31.4 25.7999V30.6999C31.4 31.0712 31.2525 31.4273 30.9899 31.6899C30.7274 31.9524 30.3713 32.0999 30 32.0999C29.6287 32.0999 29.2726 31.9524 29.01 31.6899C28.7475 31.4273 28.6 31.0712 28.6 30.6999V25.7999C28.6 25.4286 28.7475 25.0725 29.01 24.81C29.2726 24.5474 29.6287 24.3999 30 24.3999Z" fill="white"/>
<path fill-rule="evenodd" clip-rule="evenodd" d="M35.6 30.7C35.6 31.0714 35.4525 31.4274 35.1899 31.69C34.9274 31.9525 34.5713 32.1 34.2 32.1H30C29.6287 32.1 29.2726 31.9525 29.01 31.69C28.7475 31.4274 28.6 31.0714 28.6 30.7C28.6 30.3287 28.7475 29.9727 29.01 29.7101C29.2726 29.4475 29.6287 29.3 30 29.3H34.2C34.5713 29.3 34.9274 29.4475 35.1899 29.7101C35.4525 29.9727 35.6 30.3287 35.6 30.7Z" fill="white"/>
<path d="M17.8102 19.7898C17.5552 19.5258 17.414 19.1721 17.4172 18.8051C17.4204 18.438 17.5677 18.0869 17.8272 17.8273C18.0868 17.5677 18.4379 17.4205 18.805 17.4173C19.1721 17.4141 19.5257 17.5552 19.7898 17.8102L42.1898 40.2102C42.4448 40.4743 42.5859 40.8279 42.5827 41.195C42.5795 41.5621 42.4323 41.9132 42.1727 42.1728C41.9131 42.4323 41.562 42.5796 41.1949 42.5828C40.8279 42.586 40.4742 42.4449 40.2102 42.1898L17.8102 19.7898Z" fill="white"/>
</g>
<defs>
<clipPath id="clip0_3267_389">
<rect width="28" height="28" fill="white" transform="translate(16 16)"/>
</clipPath>
</defs>
</svg>
