<svg width="62" height="61" viewBox="0 0 62 61" fill="none" xmlns="http://www.w3.org/2000/svg">
<path d="M32.0022 59.0541C48.3095 59.0541 61.5292 45.8344 61.5292 29.5271C61.5292 13.2197 48.3095 0 32.0022 0C15.6948 0 2.4751 13.2197 2.4751 29.5271C2.4751 45.8344 15.6948 59.0541 32.0022 59.0541Z" fill="#EA6400"/>
<mask id="mask0_3039_16" style="mask-type:luminance" maskUnits="userSpaceOnUse" x="2" y="0" width="60" height="60">
<path d="M32.0022 59.0541C48.3095 59.0541 61.5292 45.8344 61.5292 29.5271C61.5292 13.2197 48.3095 0 32.0022 0C15.6948 0 2.4751 13.2197 2.4751 29.5271C2.4751 45.8344 15.6948 59.0541 32.0022 59.0541Z" fill="white"/>
</mask>
<g mask="url(#mask0_3039_16)">
<path d="M77.741 29.5205L-8.40649 33.9448L-6.25445 75.8478L79.893 71.4234L77.741 29.5205Z" fill="#EA813B"/>
</g>
<path d="M48.1021 12.2006L45.9126 59.9397C45.8901 60.4356 45.1759 60.4805 45.0902 59.9928C43.9434 53.4997 40.5459 42.4888 30.3165 33.8898C19.6586 24.9317 7.6519 23.689 0.636418 23.8869C0.140559 23.9012 0.0466923 23.187 0.528267 23.0707C16.1774 19.2752 31.8265 15.4818 47.4757 11.6864C47.8042 11.6068 48.1164 11.8639 48.1021 12.2026V12.2006Z" fill="white"/>
<path d="M45.4923 60.5437C45.1862 60.5437 44.9393 60.3376 44.8842 60.0295C43.5966 52.7324 39.9991 42.3031 30.1799 34.049C19.9178 25.4235 8.44983 23.8747 0.638529 24.0951C0.305916 24.1032 0.0508448 23.8828 0.00595224 23.5563C-0.0368997 23.2299 0.154914 22.9462 0.475283 22.8687L47.4227 11.4843C47.6431 11.4313 47.8696 11.4843 48.0451 11.6272C48.2206 11.7721 48.3144 11.9843 48.3042 12.2108L46.1147 59.9499C46.1004 60.2785 45.8617 60.5213 45.5331 60.5417C45.5188 60.5417 45.5025 60.5417 45.4882 60.5417L45.4923 60.5437ZM2.01795 23.6584C9.83334 23.6584 20.679 25.5173 30.4492 33.7306C40.3644 42.0643 43.9945 52.5916 45.2944 59.956C45.325 60.1295 45.4821 60.1295 45.5127 60.1275C45.5433 60.1275 45.6984 60.107 45.7066 59.9295L47.8961 12.1904C47.9002 12.0945 47.8614 12.0067 47.7879 11.9455C47.7145 11.8843 47.6186 11.8639 47.5268 11.8863L0.577312 23.2707C0.403863 23.3135 0.416107 23.4686 0.420188 23.5013C0.424269 23.5319 0.458958 23.6869 0.630366 23.6788C1.08133 23.6665 1.54454 23.6584 2.01795 23.6584Z" fill="#EA6400"/>
</svg>
